<mxfile host="65bd71144e">
    <diagram id="OWZen1xBCWu0FXALf17f" name="Page-1">
        <mxGraphModel dx="2812" dy="1371" grid="1" gridSize="10" guides="1" tooltips="1" connect="1" arrows="1" fold="1" page="1" pageScale="1" pageWidth="850" pageHeight="1100" background="#CCFF99" math="0" shadow="1">
            <root>
                <mxCell id="0"/>
                <mxCell id="1" parent="0"/>
                <mxCell id="15" style="edgeStyle=none;html=1;exitX=1;exitY=0;exitDx=0;exitDy=27.5;exitPerimeter=0;entryX=0.833;entryY=0.375;entryDx=0;entryDy=0;entryPerimeter=0;" parent="1" edge="1">
                    <mxGeometry relative="1" as="geometry">
                        <mxPoint x="559.9999999999998" y="457.5" as="sourcePoint"/>
                        <mxPoint x="549.98" y="460" as="targetPoint"/>
                    </mxGeometry>
                </mxCell>
                <mxCell id="109" style="edgeStyle=none;html=1;" edge="1" parent="1" source="62">
                    <mxGeometry relative="1" as="geometry">
                        <mxPoint x="-193.312883435583" y="197" as="targetPoint"/>
                    </mxGeometry>
                </mxCell>
                <mxCell id="62" value="&amp;nbsp; &amp;nbsp; &amp;nbsp; &amp;nbsp;save location&amp;nbsp;&lt;br&gt;&amp;nbsp;save time&amp;nbsp;" style="shape=datastore;whiteSpace=wrap;html=1;fontSize=16;fontColor=#ffffff;strokeColor=#006EAF;fillColor=#1ba1e2;" parent="1" vertex="1">
                    <mxGeometry x="-370" y="210" width="360" height="190" as="geometry"/>
                </mxCell>
                <mxCell id="70" value="message:&lt;br&gt;/start" style="shape=ext;double=1;whiteSpace=wrap;html=1;aspect=fixed;fontSize=16;fontColor=#FFFFFF;strokeColor=#990000;" parent="1" vertex="1">
                    <mxGeometry x="680" y="87" width="153" height="153" as="geometry"/>
                </mxCell>
                <mxCell id="71" value="location request" style="endArrow=classic;html=1;fontSize=16;fontColor=#FFFFFF;strokeColor=#990000;strokeWidth=13;entryX=1;entryY=0.25;entryDx=0;entryDy=0;" parent="1" target="120" edge="1">
                    <mxGeometry x="0.1292" width="50" height="50" relative="1" as="geometry">
                        <mxPoint x="680" y="180" as="sourcePoint"/>
                        <mxPoint x="483.173505431404" y="178.3709621198068" as="targetPoint"/>
                        <Array as="points">
                            <mxPoint x="640" y="180"/>
                            <mxPoint x="510" y="180"/>
                        </Array>
                        <mxPoint as="offset"/>
                    </mxGeometry>
                </mxCell>
                <mxCell id="77" style="edgeStyle=none;html=1;entryX=1;entryY=0.5;entryDx=0;entryDy=0;fontSize=16;fontColor=#FFFFFF;strokeColor=#990000;strokeWidth=13;startArrow=none;exitX=-0.01;exitY=0.224;exitDx=0;exitDy=0;exitPerimeter=0;" parent="1" source="79" target="62" edge="1">
                    <mxGeometry relative="1" as="geometry"/>
                </mxCell>
                <mxCell id="106" value="get&amp;nbsp; finale data&amp;nbsp;" style="edgeStyle=none;html=1;fontSize=16;fontColor=#FFFFFF;strokeColor=#005700;strokeWidth=13;fillColor=#008a00;" parent="1" target="107" edge="1">
                    <mxGeometry relative="1" as="geometry">
                        <mxPoint x="932.5640399639423" y="249.9999999999999" as="targetPoint"/>
                        <mxPoint x="240" y="260" as="sourcePoint"/>
                    </mxGeometry>
                </mxCell>
                <mxCell id="79" value="API&lt;br&gt;&amp;nbsp;SERVICE" style="rounded=1;whiteSpace=wrap;html=1;fontSize=16;fontColor=#333333;strokeColor=#666666;fillColor=#f5f5f5;" parent="1" vertex="1">
                    <mxGeometry x="110" y="90" width="120" height="390" as="geometry"/>
                </mxCell>
                <mxCell id="80" value="" style="edgeStyle=none;html=1;fontSize=16;fontColor=#FFFFFF;strokeColor=#990000;strokeWidth=13;endArrow=none;" parent="1" edge="1">
                    <mxGeometry relative="1" as="geometry">
                        <mxPoint x="330" y="170" as="sourcePoint"/>
                        <mxPoint x="230" y="176" as="targetPoint"/>
                    </mxGeometry>
                </mxCell>
                <mxCell id="81" value="Text" style="edgeLabel;html=1;align=center;verticalAlign=middle;resizable=0;points=[];fontSize=16;fontColor=#FFFFFF;" parent="80" vertex="1" connectable="0">
                    <mxGeometry x="-0.1691" y="-4" relative="1" as="geometry">
                        <mxPoint x="1" as="offset"/>
                    </mxGeometry>
                </mxCell>
                <mxCell id="84" value="request time&amp;nbsp;" style="edgeStyle=segmentEdgeStyle;endArrow=classic;html=1;fontSize=16;fontColor=#FFFFFF;strokeColor=#990000;strokeWidth=13;" parent="1" edge="1">
                    <mxGeometry x="0.4419" width="50" height="50" relative="1" as="geometry">
                        <mxPoint x="240" y="334" as="sourcePoint"/>
                        <mxPoint x="670" y="334" as="targetPoint"/>
                        <Array as="points">
                            <mxPoint x="290" y="334"/>
                            <mxPoint x="290" y="334"/>
                        </Array>
                        <mxPoint x="-1" as="offset"/>
                    </mxGeometry>
                </mxCell>
                <mxCell id="86" value="set time&amp;nbsp;" style="whiteSpace=wrap;html=1;aspect=fixed;fontSize=16;fontColor=#FFFFFF;strokeColor=#990000;" parent="1" vertex="1">
                    <mxGeometry x="680" y="280" width="160" height="160" as="geometry"/>
                </mxCell>
                <mxCell id="87" value="set time&amp;nbsp;" style="shape=singleArrow;direction=west;whiteSpace=wrap;html=1;fontSize=16;fontColor=#FFFFFF;strokeColor=#990000;" parent="1" vertex="1">
                    <mxGeometry x="230" y="380" width="550" height="60" as="geometry"/>
                </mxCell>
                <mxCell id="95" value="" style="shape=singleArrow;direction=north;whiteSpace=wrap;html=1;fontSize=16;fontColor=#FFFFFF;strokeColor=#990000;rotation=-60;" parent="1" vertex="1">
                    <mxGeometry x="20" y="340" width="60" height="100" as="geometry"/>
                </mxCell>
                <mxCell id="97" value="cron" style="shape=offPageConnector;whiteSpace=wrap;html=1;fontSize=16;fontColor=#ffffff;strokeColor=#6F0000;size=0;fillColor=#a20025;" parent="1" vertex="1">
                    <mxGeometry x="-270" y="530" width="150" height="120" as="geometry"/>
                </mxCell>
                <mxCell id="99" value="match&amp;nbsp;&amp;nbsp;" style="shape=doubleArrow;direction=south;whiteSpace=wrap;html=1;fontSize=16;fontColor=#FFFFFF;strokeColor=#990000;" parent="1" vertex="1">
                    <mxGeometry x="-220" y="400" width="60" height="130" as="geometry"/>
                </mxCell>
                <mxCell id="101" value="respose data for user" style="shape=singleArrow;whiteSpace=wrap;html=1;fontSize=16;fontColor=#ffffff;strokeColor=#005700;rotation=-25;fillColor=#008a00;" parent="1" vertex="1">
                    <mxGeometry x="-137.96" y="504.08" width="270" height="60" as="geometry"/>
                </mxCell>
                <mxCell id="102" value="wether api&lt;br&gt;" style="shape=delay;whiteSpace=wrap;html=1;fontSize=16;fontColor=#000000;strokeColor=#C73500;fillColor=#fa6800;" parent="1" vertex="1">
                    <mxGeometry x="120" y="580" width="197.96" height="70" as="geometry"/>
                </mxCell>
                <mxCell id="104" value="get forcast&amp;nbsp;" style="shape=doubleArrow;whiteSpace=wrap;html=1;fontSize=16;fontColor=#FFFFFF;strokeColor=#990000;" parent="1" vertex="1">
                    <mxGeometry x="-120" y="590" width="240" height="60" as="geometry"/>
                </mxCell>
                <mxCell id="107" value="user&lt;br&gt;&lt;br&gt;wether&amp;nbsp;&lt;br&gt;location&amp;nbsp;&lt;br&gt;data&amp;nbsp;" style="shape=actor;whiteSpace=wrap;html=1;fontSize=16;fontColor=#ffffff;strokeColor=#005700;fillColor=#008a00;" parent="1" vertex="1">
                    <mxGeometry x="890" y="190" width="347.44" height="140" as="geometry"/>
                </mxCell>
                <mxCell id="112" value="&lt;font style=&quot;font-size: 24px&quot;&gt;chatid:Number,&lt;br&gt;location:{&lt;br&gt;&amp;nbsp; &amp;nbsp; &amp;nbsp; &amp;nbsp; &amp;nbsp; &amp;nbsp; latitude:Number,&lt;br&gt;&amp;nbsp; &amp;nbsp; &amp;nbsp; &amp;nbsp; &amp;nbsp; &amp;nbsp; &amp;nbsp; &amp;nbsp;longitude:Number&amp;nbsp;&lt;br&gt;&amp;nbsp;}&lt;br&gt;Data:string(HH:mm)&lt;br&gt;&lt;/font&gt;" style="whiteSpace=wrap;html=1;align=center;verticalAlign=middle;treeFolding=1;treeMoving=1;newEdgeStyle={&quot;edgeStyle&quot;:&quot;elbowEdgeStyle&quot;,&quot;startArrow&quot;:&quot;none&quot;,&quot;endArrow&quot;:&quot;none&quot;};fillColor=#0050ef;fontColor=#ffffff;strokeColor=#001DBC;" vertex="1" parent="1">
                    <mxGeometry x="-380" y="10" width="380" height="200" as="geometry"/>
                </mxCell>
                <mxCell id="113" value="" style="edgeStyle=elbowEdgeStyle;elbow=vertical;startArrow=none;endArrow=none;rounded=0;" edge="1" target="112" parent="1">
                    <mxGeometry relative="1" as="geometry">
                        <mxPoint x="-255" y="110" as="sourcePoint"/>
                    </mxGeometry>
                </mxCell>
                <mxCell id="120" value="TEL&lt;br&gt;API&lt;br&gt;" style="rounded=1;whiteSpace=wrap;html=1;fontSize=16;fontColor=#333333;strokeColor=#666666;fillColor=#f5f5f5;" vertex="1" parent="1">
                    <mxGeometry x="340" y="87" width="80" height="390" as="geometry"/>
                </mxCell>
            </root>
        </mxGraphModel>
    </diagram>
</mxfile>